<svg viewBox="0 0 800 500" xmlns="http://www.w3.org/2000/svg">
  <!-- 背景 -->
  <rect width="800" height="500" fill="#f8f9fa" />
  
  <!-- タイトル (最小限のテキスト) -->
  <text x="250" y="30" font-family="Arial" font-size="20" fill="#333">Checkstyle vs SonarQube</text>
  
  <!-- 2つの列を分ける線 -->
  <line x1="400" y1="50" x2="400" y2="480" stroke="#ccc" stroke-width="2" stroke-dasharray="5,5" />
  
  <!-- Checkstyle側 (左側) -->
  <g transform="translate(50, 60)">
    <!-- Javaファイル -->
    <rect x="100" y="10" width="60" height="80" fill="#fff" stroke="#333" />
    <text x="115" y="50" font-family="Arial" font-size="10" fill="#333">.java</text>
    
    <!-- パーサー -->
    <rect x="90" y="130" width="80" height="40" rx="10" ry="10" fill="#ffb74d" stroke="#333" />
    <circle cx="130" cy="150" r="15" fill="#fff" stroke="#333" />
    <line x1="121" y1="145" x2="139" y2="155" stroke="#333" stroke-width="2" />
    <line x1="121" y1="155" x2="139" y2="145" stroke="#333" stroke-width="2" />
    
    <!-- AST -->
    <g transform="translate(130, 210)">
      <circle cx="0" cy="0" r="10" fill="#81c784" stroke="#333" />
      <line x1="0" y1="10" x2="-20" y2="30" stroke="#333" stroke-width="1" />
      <line x1="0" y1="10" x2="20" y2="30" stroke="#333" stroke-width="1" />
      <circle cx="-20" cy="30" r="8" fill="#81c784" stroke="#333" />
      <circle cx="20" cy="30" r="8" fill="#81c784" stroke="#333" />
      <line x1="-20" y1="38" x2="-30" y2="50" stroke="#333" stroke-width="1" />
      <line x1="-20" y1="38" x2="-10" y2="50" stroke="#333" stroke-width="1" />
      <circle cx="-30" cy="50" r="6" fill="#81c784" stroke="#333" />
      <circle cx="-10" cy="50" r="6" fill="#81c784" stroke="#333" />
    </g>
    
    <!-- TreeWalker -->
    <g transform="translate(130, 280)">
      <rect x="-40" y="0" width="80" height="40" rx="5" ry="5" fill="#64b5f6" stroke="#333" />
      <path d="M-25,10 L-15,30 L-5,15 L5,25 L15,10 L25,30" stroke="#333" stroke-width="2" fill="none" />
    </g>
    
    <!-- ルールチェック -->
    <g transform="translate(130, 360)">
      <rect x="-40" y="0" width="80" height="40" rx="5" ry="5" fill="#e57373" stroke="#333" />
      <text x="-10" y="25" font-family="Arial" font-size="20" fill="#333">✓</text>
      <text x="10" y="25" font-family="Arial" font-size="20" fill="#333">✗</text>
    </g>
    
    <!-- 矢印 -->
    <line x1="130" y1="90" x2="130" y2="130" stroke="#333" stroke-width="2" marker-end="url(#arrow)" />
    <line x1="130" y1="170" x2="130" y2="200" stroke="#333" stroke-width="2" marker-end="url(#arrow)" />
    <line x1="130" y1="260" x2="130" y2="280" stroke="#333" stroke-width="2" marker-end="url(#arrow)" />
    <line x1="130" y1="320" x2="130" y2="360" stroke="#333" stroke-width="2" marker-end="url(#arrow)" />
  </g>
  
  <!-- SonarQube側 (右側) -->
  <g transform="translate(450, 60)">
    <!-- Javaファイル -->
    <rect x="100" y="10" width="60" height="80" fill="#fff" stroke="#333" />
    <text x="115" y="50" font-family="Arial" font-size="10" fill="#333">.java</text>
    
    <!-- パーサー -->
    <rect x="90" y="130" width="80" height="40" rx="10" ry="10" fill="#ffb74d" stroke="#333" />
    <circle cx="130" cy="150" r="15" fill="#fff" stroke="#333" />
    <line x1="121" y1="145" x2="139" y2="155" stroke="#333" stroke-width="2" />
    <line x1="121" y1="155" x2="139" y2="145" stroke="#333" stroke-width="2" />
    
    <!-- AST -->
    <g transform="translate(130, 200)">
      <circle cx="0" cy="0" r="10" fill="#81c784" stroke="#333" />
      <line x1="0" y1="10" x2="-20" y2="30" stroke="#333" stroke-width="1" />
      <line x1="0" y1="10" x2="20" y2="30" stroke="#333" stroke-width="1" />
      <circle cx="-20" cy="30" r="8" fill="#81c784" stroke="#333" />
      <circle cx="20" cy="30" r="8" fill="#81c784" stroke="#333" />
      <line x1="-20" y1="38" x2="-30" y2="50" stroke="#333" stroke-width="1" />
      <line x1="-20" y1="38" x2="-10" y2="50" stroke="#333" stroke-width="1" />
      <circle cx="-30" cy="50" r="6" fill="#81c784" stroke="#333" />
      <circle cx="-10" cy="50" r="6" fill="#81c784" stroke="#333" />
    </g>
    
    <!-- シンボルテーブル -->
    <g transform="translate(70, 260)">
      <rect x="-30" y="0" width="60" height="40" fill="#ce93d8" stroke="#333" />
      <line x1="-25" y1="10" x2="25" y2="10" stroke="#333" stroke-width="1" />
      <line x1="-25" y1="20" x2="25" y2="20" stroke="#333" stroke-width="1" />
      <line x1="-25" y1="30" x2="25" y2="30" stroke="#333" stroke-width="1" />
      <line x1="0" y1="0" x2="0" y2="40" stroke="#333" stroke-width="1" />
    </g>
    
    <!-- 依存関係グラフ -->
    <g transform="translate(130, 260)">
      <circle cx="0" cy="20" r="15" fill="#90caf9" stroke="#333" />
      <circle cx="30" cy="10" r="10" fill="#90caf9" stroke="#333" />
      <circle cx="40" cy="35" r="12" fill="#90caf9" stroke="#333" />
      <line x1="0" y1="20" x2="30" y2="10" stroke="#333" stroke-width="1" />
      <line x1="0" y1="20" x2="40" y2="35" stroke="#333" stroke-width="1" />
      <line x1="30" y1="10" x2="40" y2="35" stroke="#333" stroke-width="1" />
    </g>
    
    <!-- 制御フローグラフ -->
    <g transform="translate(190, 260)">
      <rect x="0" y="0" width="60" height="40" rx="5" ry="5" fill="#fff176" stroke="#333" />
      <circle cx="10" cy="10" r="5" fill="#333" />
      <path d="M10,15 L10,25 L20,25 L20,15 L30,15 L30,25 L40,25 L40,35 L50,35" stroke="#333" stroke-width="1.5" fill="none" />
      <circle cx="50" cy="35" r="5" fill="#333" />
    </g>
    
    <!-- ルールチェック -->
    <g transform="translate(130, 330)">
      <rect x="-40" y="0" width="80" height="40" rx="5" ry="5" fill="#e57373" stroke="#333" />
      <text x="-10" y="25" font-family="Arial" font-size="20" fill="#333">✓</text>
      <text x="10" y="25" font-family="Arial" font-size="20" fill="#333">✗</text>
    </g>
    
    <!-- データベース -->
    <g transform="translate(130, 400)">
      <path d="M-30,0 C-30,-10 30,-10 30,0 L30,20 C30,30 -30,30 -30,20 Z" fill="#a1887f" stroke="#333" />
      <path d="M-30,0 C-30,10 30,10 30,0" fill="none" stroke="#333" />
    </g>
    
    <!-- 矢印 -->
    <line x1="130" y1="90" x2="130" y2="130" stroke="#333" stroke-width="2" marker-end="url(#arrow)" />
    <line x1="130" y1="170" x2="130" y2="190" stroke="#333" stroke-width="2" marker-end="url(#arrow)" />
    
    <line x1="130" y1="260" x2="70" y2="260" stroke="#333" stroke-width="2" marker-end="url(#arrow)" />
    <line x1="130" y1="260" x2="190" y2="260" stroke="#333" stroke-width="2" marker-end="url(#arrow)" />
    
    <line x1="70" y1="300" x2="100" y2="330" stroke="#333" stroke-width="2" marker-end="url(#arrow)" />
    <line x1="130" y1="300" x2="130" y2="330" stroke="#333" stroke-width="2" marker-end="url(#arrow)" />
    <line x1="190" y1="300" x2="160" y2="330" stroke="#333" stroke-width="2" marker-end="url(#arrow)" />
    
    <line x1="130" y1="370" x2="130" y2="400" stroke="#333" stroke-width="2" marker-end="url(#arrow)" />
  </g>
  
  <!-- 矢印のマーカー定義 -->
  <defs>
    <marker id="arrow" markerWidth="10" markerHeight="10" refX="9" refY="3" orient="auto" markerUnits="strokeWidth">
      <path d="M0,0 L0,6 L9,3 z" fill="#333" />
    </marker>
  </defs>
</svg>
